<svg width="120" height="32" viewBox="0 0 120 32" fill="none" xmlns="http://www.w3.org/2000/svg">
<path d="M8.63037 27V8.824H1.46237V4.6H20.9824V8.824H13.8144V27H8.63037ZM37.4751 27.384C35.7045 27.384 34.0725 27.1067 32.5791 26.552C31.1071 25.976 29.8165 25.1653 28.7071 24.12C27.6191 23.0747 26.7658 21.848 26.1471 20.44C25.5498 19.032 25.2511 17.4853 25.2511 15.8C25.2511 14.1147 25.5498 12.568 26.1471 11.16C26.7658 9.752 27.6298 8.52533 28.7391 7.48C29.8485 6.43467 31.1498 5.63467 32.6431 5.08C34.1365 4.504 35.7791 4.216 37.5711 4.216C39.5551 4.216 41.3365 4.54667 42.9151 5.208C44.5151 5.86933 45.8591 6.82933 46.9471 8.088L43.6191 11.16C42.8085 10.3067 41.9231 9.67733 40.9631 9.272C40.0031 8.84533 38.9578 8.632 37.8271 8.632C36.7391 8.632 35.7471 8.80267 34.8511 9.144C33.9551 9.48533 33.1765 9.976 32.5151 10.616C31.8751 11.256 31.3738 12.0133 31.0111 12.888C30.6698 13.7627 30.4991 14.7333 30.4991 15.8C30.4991 16.8453 30.6698 17.8053 31.0111 18.68C31.3738 19.5547 31.8751 20.3227 32.5151 20.984C33.1765 21.624 33.9445 22.1147 34.8191 22.456C35.7151 22.7973 36.6965 22.968 37.7631 22.968C38.7871 22.968 39.7791 22.808 40.7391 22.488C41.7205 22.1467 42.6698 21.5813 43.5871 20.792L46.5311 24.536C45.3151 25.4533 43.8965 26.1573 42.2751 26.648C40.6751 27.1387 39.0751 27.384 37.4751 27.384ZM41.7951 23.864V15.448H46.5311V24.536L41.7951 23.864ZM59.3466 14.68H70.0986V18.84H59.3466V14.68ZM59.7306 27H54.5466V4.6H71.4746V8.76H59.7306V27ZM78.1841 27V4.6H87.8801C89.8855 4.6 91.6135 4.93067 93.0641 5.592C94.5148 6.232 95.6348 7.16 96.4241 8.376C97.2135 9.592 97.6081 11.0427 97.6081 12.728C97.6081 14.392 97.2135 15.832 96.4241 17.048C95.6348 18.2427 94.5148 19.16 93.0641 19.8C91.6135 20.44 89.8855 20.76 87.8801 20.76H81.0641L83.3681 18.488V27H78.1841ZM92.4241 27L86.8241 18.872H92.3601L98.0241 27H92.4241ZM83.3681 19.064L81.0641 16.632H87.5921C89.1921 16.632 90.3868 16.2907 91.1761 15.608C91.9655 14.904 92.3601 13.944 92.3601 12.728C92.3601 11.4907 91.9655 10.5307 91.1761 9.848C90.3868 9.16533 89.1921 8.824 87.5921 8.824H81.0641L83.3681 6.36V19.064Z" fill="white"/>
<path d="M102.666 29.88V27H118.666V29.88H102.666Z" fill="#00CE78"/>
</svg>
