<svg width="96" height="25" viewBox="0 0 96 25" fill="none" xmlns="http://www.w3.org/2000/svg">
<path d="M9.47278 21V7.368H4.09678V4.2H18.7368V7.368H13.3608V21H9.47278ZM31.1063 21.288C29.7783 21.288 28.5543 21.08 27.4343 20.664C26.3303 20.232 25.3623 19.624 24.5303 18.84C23.7143 18.056 23.0743 17.136 22.6103 16.08C22.1623 15.024 21.9383 13.864 21.9383 12.6C21.9383 11.336 22.1623 10.176 22.6103 9.12C23.0743 8.064 23.7223 7.144 24.5543 6.36C25.3863 5.576 26.3623 4.976 27.4823 4.56C28.6023 4.128 29.8343 3.912 31.1783 3.912C32.6663 3.912 34.0023 4.16 35.1863 4.656C36.3863 5.152 37.3943 5.872 38.2103 6.816L35.7143 9.12C35.1063 8.48 34.4423 8.008 33.7223 7.704C33.0023 7.384 32.2183 7.224 31.3703 7.224C30.5543 7.224 29.8103 7.352 29.1383 7.608C28.4663 7.864 27.8823 8.232 27.3863 8.712C26.9063 9.192 26.5303 9.76 26.2583 10.416C26.0023 11.072 25.8743 11.8 25.8743 12.6C25.8743 13.384 26.0023 14.104 26.2583 14.76C26.5303 15.416 26.9063 15.992 27.3863 16.488C27.8823 16.968 28.4583 17.336 29.1143 17.592C29.7863 17.848 30.5223 17.976 31.3223 17.976C32.0903 17.976 32.8343 17.856 33.5543 17.616C34.2903 17.36 35.0023 16.936 35.6903 16.344L37.8983 19.152C36.9863 19.84 35.9223 20.368 34.7063 20.736C33.5063 21.104 32.3063 21.288 31.1063 21.288ZM34.3463 18.648V12.336H37.8983V19.152L34.3463 18.648ZM47.51 11.76H55.574V14.88H47.51V11.76ZM47.798 21H43.91V4.2H56.606V7.32H47.798V21ZM61.6381 21V4.2H68.9101C70.4141 4.2 71.7101 4.448 72.7981 4.944C73.8861 5.424 74.7261 6.12 75.3181 7.032C75.9101 7.944 76.2061 9.032 76.2061 10.296C76.2061 11.544 75.9101 12.624 75.3181 13.536C74.7261 14.432 73.8861 15.12 72.7981 15.6C71.7101 16.08 70.4141 16.32 68.9101 16.32H63.7981L65.5261 14.616V21H61.6381ZM72.3181 21L68.1181 14.904H72.2701L76.5181 21H72.3181ZM65.5261 15.048L63.7981 13.224H68.6941C69.8941 13.224 70.7901 12.968 71.3821 12.456C71.9741 11.928 72.2701 11.208 72.2701 10.296C72.2701 9.368 71.9741 8.648 71.3821 8.136C70.7901 7.624 69.8941 7.368 68.6941 7.368H63.7981L65.5261 5.52V15.048Z" fill="white"/>
<path d="M79.9992 23.16V21H91.9992V23.16H79.9992Z" fill="#00CE78"/>
</svg>
